PathFileType	4	(X/Y/Z)	OpenSim_Sub03_CSBaseline_Accel.trc
DataRate	CameraRate	NumFrames	NumMarkers	Units	OrigDataRate	OrigDataStartFrame	OrigNumFrames
100	100	30	8	m	100	1162	9288
Frame#	Time	torso_imu_offset_imu	pelvis_imu_offset_imu	tibia_r_imu_offset_imu	femur_r_imu_offset_imu	tibia_l_imu_offset_imu	femur_l_imu_offset_imu	toes_r_imu_offset_imu	toes_l_imu_offset_imu
				X1	Y1	Z1	X2	Y2	Z2	X3	Y3	Z3	X4	Y4	Z4	X5	Y5	Z5	X6	Y6	Z6	X7	Y7	Z7	X8		Y8	Z8	

1162	11.61000000	8.88563693	1.90961417	4.77637615	9.14347356	-1.15946461	1.86419864	6.62681047	4.65904964	1.75997144	8.59912104	-0.28767859	2.67347160	9.75339483	-1.52457692	-0.25548565	9.47625599	-0.17470481	-1.70767711	8.27604885	-1.19729448	7.59359605	5.95524692	1.78451274	10.36744150
1163	11.62000000	9.08246938	1.89697372	4.80149011	9.15162619	-1.19428004	1.83479852	6.97848537	4.03668209	2.04859260	8.56454535	-0.61689808	2.95631478	9.64554199	-1.65411875	-0.27033206	9.42520445	-0.44029494	-1.71488619	8.85224951	-1.90806031	7.36693443	6.17335946	1.86455800	10.26751340
1164	11.63000000	9.17313058	1.85664066	4.87406624	9.24074032	-1.20303568	1.81832134	7.39189290	3.68250336	2.02141008	8.68229496	-0.79594538	3.06095992	9.67641829	-1.41451339	-0.53216732	9.36196935	-0.60633520	-1.77935317	9.12637517	-2.18905314	7.30554754	6.26929256	1.92772508	10.06786126
1165	11.64000000	9.22087210	1.81125983	4.99099282	9.30121052	-1.29176329	1.77706482	7.88911836	3.64869768	1.91260000	8.42484274	-0.84735084	3.11634274	9.75300431	-1.28056187	-0.66236737	9.36514745	-0.73719664	-1.89349042	9.26640269	-2.25406031	7.38791984	6.17316039	2.09265498	10.05766555
1166	11.65000000	9.24932923	1.79621261	5.02299435	9.37223873	-1.42213956	1.71981579	8.51746411	3.89196123	1.60509325	8.36714473	-1.02019996	3.20902901	9.70971252	-1.12990853	-0.70841216	9.37045429	-0.66877811	-2.00640228	9.46004024	-2.15978811	7.76452634	5.90844432	2.25313543	10.33223471
1167	11.66000000	9.20611441	1.80901175	5.05308598	9.46539661	-1.50712773	1.67381129	9.05999109	4.17403146	1.20346727	8.10507375	-1.07286096	3.22868597	9.78403260	-0.98454463	-0.80938576	9.43143026	-0.57210427	-1.98064560	9.78396693	-1.91533670	8.18399284	5.68412699	2.44386269	10.42994106
1168	11.67000000	9.21459756	1.75425793	5.08403759	9.57246899	-1.59828283	1.60556457	9.20126200	4.03522855	1.04410641	8.09979301	-1.28537813	3.23443021	9.81013092	-0.67038436	-0.86416797	9.52019638	-0.49470885	-1.98691222	10.07919779	-1.80235941	8.45048843	6.08060820	2.51625112	10.20972727
1169	11.68000000	9.27139451	1.67802171	5.10571359	9.62108489	-1.62204598	1.59418698	9.42119012	3.53591705	0.96942235	8.09142475	-1.58762344	3.13318851	9.93234936	-0.38463196	-0.91291028	9.40486120	-0.17479063	-2.02811610	10.43567913	-1.89613713	8.70168816	6.09279167	2.27521007	10.08434653
1170	11.69000000	9.22918068	1.61078755	5.15810892	9.60550203	-1.65195501	1.53177414	9.95920125	3.07597799	0.79247598	8.01255127	-2.20244154	2.90078101	9.81906679	-0.50845986	-0.77940447	9.31540570	0.12099636	-2.05919647	10.61817557	-1.76746524	8.80238448	6.00191689	2.20000512	10.22433100
1171	11.70000000	9.18644007	1.52026565	5.18062860	9.59707456	-1.67097663	1.49657639	10.22319666	2.99124794	0.57278564	8.07487157	-2.64005108	2.65301725	9.71267867	-0.77248179	-0.78599406	9.37332329	0.15215518	-2.08652150	10.67581817	-1.34346662	8.95876934	5.58053464	2.28029883	10.47060311
1172	11.71000000	9.11836464	1.50002733	5.23788204	9.61972852	-1.67192112	1.46961511	10.63244479	3.26006763	0.48274862	8.13796363	-3.20135466	2.42274307	9.71766556	-0.22708225	-0.91813435	9.32131313	0.02510678	-2.18263349	10.93122505	-0.81344242	9.31549715	5.77730535	2.40974634	10.32568172
1173	11.72000000	9.07108633	1.49900635	5.41027788	9.65743184	-1.64904297	1.47536585	10.97036458	3.70908131	0.32540012	8.28152910	-3.63207803	2.26154103	9.61367272	0.27549677	-1.08107778	9.26827503	0.05346081	-2.23097653	11.46109960	-0.52368910	9.69242100	5.89979544	2.23640690	10.32017124
1174	11.73000000	9.07159297	1.46867123	5.45744901	9.73301139	-1.71052289	1.46073598	11.16904616	4.09859990	0.34537822	8.49567223	-3.96623020	2.18858501	9.65418782	0.16769410	-1.01859144	9.22279748	0.36878992	-2.16832463	11.50248088	-0.58991158	9.60312947	5.93003019	2.36308711	10.25384609
1175	11.74000000	9.10387858	1.35396872	5.48566424	9.66177440	-1.79991813	1.49211269	11.55346207	4.04258833	0.51353771	9.00801917	-4.34162683	2.14317113	9.67980713	0.40267473	-0.88155941	9.18607268	0.60020831	-2.17953724	11.42856321	-0.33490239	9.30553389	5.66750459	2.44924472	10.33226836
1176	11.75000000	8.99533165	1.28798537	5.50126628	9.58137567	-1.83699349	1.58958280	12.14889116	3.70028673	0.57934197	9.23310042	-4.38140783	1.99813041	9.62407759	0.65365762	-0.82292744	9.31656853	0.69870724	-2.23571706	11.21679443	0.03721347	8.90674698	5.93529127	2.49801427	10.22945770
1177	11.76000000	8.97668430	1.28968779	5.61655141	9.51784550	-1.68045888	1.69225047	11.98255632	3.15773355	0.63894932	9.20188216	-4.19427402	1.89380049	9.78895977	0.08258011	-0.80633826	9.38695260	0.65761208	-2.29456711	11.44971636	0.04355615	8.41738028	6.14897510	2.05214957	10.08639651
1178	11.77000000	9.02306553	1.34646342	5.65491922	9.38870737	-1.45559958	1.65368113	11.07446382	2.59873237	1.31737361	9.31165882	-4.04142217	2.04318005	10.06497157	-0.67432102	-0.68025306	9.49249458	0.56194787	-2.19744098	11.59211775	-0.42631587	7.22806292	6.27508825	1.76066913	10.21010862
1179	11.78000000	9.12021152	1.40887912	5.68455520	9.31916898	-1.30933615	1.66301445	10.34467816	1.92209963	1.78394218	8.98361080	-4.01618033	2.36659009	10.31023072	-1.45036714	-0.51867397	9.83073392	0.36081742	-2.22619255	11.46840978	-0.23270208	5.52035910	5.97803462	1.31039072	10.54391983
1180	11.79000000	9.30947871	1.48405729	5.68164464	9.29534280	-1.33273220	1.56779592	10.13443570	0.68743651	2.40656415	8.89079695	-4.16540004	2.70386127	10.59392527	-1.87299484	-0.18590844	10.06818603	0.12788177	-2.26261017	13.54886934	0.92292181	5.54628164	5.93082220	1.00110024	10.56175424
1181	11.80000000	9.43066557	1.58662218	5.65130163	9.38007491	-1.38294226	1.56668629	10.23217727	0.45971461	2.81183997	8.74056223	-4.27736373	2.93162300	10.65815695	-1.60215659	-0.00203728	10.33343076	-0.03473905	-2.09913288	14.83106152	0.99164034	5.10940111	6.29199869	0.99285634	10.51198007
1182	11.81000000	9.45076878	1.63694578	5.62429570	9.61391615	-1.44396499	1.63845346	9.74136532	0.91239533	2.20898615	9.03978492	-4.39192370	3.00127641	10.80217740	-1.43295127	0.08792514	10.39521541	-0.13848257	-2.01216127	13.63953960	0.34132421	3.46562951	6.19691963	0.94525631	10.60884844
1183	11.82000000	9.49317272	1.68464832	5.60176086	9.79666836	-1.50289992	1.67586586	9.56569428	-0.21633533	2.08916735	9.13042547	-4.63773556	3.30423110	10.77208819	-1.73128847	0.11972273	10.41583061	-0.17941946	-2.00392191	13.49112449	-0.30016864	1.92344252	5.90600275	1.16720504	10.81163331
1184	11.83000000	9.59335355	1.75998955	5.63375876	9.96742410	-1.58388436	1.78547011	9.91626735	-1.53658076	1.63727106	9.39779783	-4.98781251	3.54978775	10.54429812	-1.33411999	0.13489427	10.38941331	-0.23814535	-2.07099861	13.05091747	-0.89687497	-0.37982535	5.81960887	1.28999676	10.76964082
1185	11.84000000	9.76269937	1.84024037	5.70163087	10.07901713	-1.62247764	1.81217602	9.64312151	-2.89459783	1.63564111	9.59567331	-5.50300069	3.79102774	10.59243873	-0.55011477	-0.10724183	10.29044478	-0.26492529	-2.13099211	13.82925556	-0.11448844	-1.56088703	6.27635555	1.48907051	10.50793065
1186	11.85000000	9.87755405	1.95326020	5.71517300	10.14400340	-1.56824092	1.84533055	8.97251126	-3.64744343	1.78061316	9.80255625	-5.93582535	4.05563243	10.55927631	-1.15769517	-0.45363406	10.05881186	-0.18210241	-2.17158055	15.37368012	1.45153685	-2.04067664	6.35088236	1.39017405	10.40323036
1187	11.86000000	9.86709947	2.01010348	5.72129602	10.09423911	-1.56013441	1.75898251	8.90141749	-3.73875692	1.56532578	10.00036848	-6.24992628	4.26781202	10.52396749	-1.69698583	-0.32707387	9.97040278	-0.11719194	-2.16828946	14.45426895	2.53398142	-2.65144993	6.16771484	1.65827509	10.51568806
1188	11.87000000	9.82885866	1.97921682	5.67812006	9.97966542	-1.54878450	1.59414003	9.01204678	-2.29314546	0.42176048	10.41001959	-6.54927236	4.45587504	10.54272832	-1.45731190	-0.57337777	10.07618764	-0.21729185	-2.15244117	12.18213379	3.89472125	-2.29656655	5.99067228	1.57199912	10.55963694
1189	11.88000000	9.83115939	2.01813181	5.56755138	9.91561887	-1.71462064	1.32159414	9.01270884	-0.07240624	0.15265004	10.29606613	-6.35869445	4.41082414	10.50440901	-0.95673181	-0.67364143	10.20482851	-0.30800107	-2.24713739	11.12690080	3.76913242	-1.62839621	6.42893815	2.07330715	10.30804929
1190	11.89000000	9.84464528	1.96880689	5.44478444	9.90552145	-1.93836936	1.00560778	8.99679353	2.13012437	0.00957623	9.54272184	-5.44569855	4.16917959	10.81947573	-1.04665185	-0.92598666	10.18751630	-0.29718966	-2.25720922	11.49331485	1.92365888	-1.53240457	6.81171997	1.75332640	10.06546470
1191	11.90000000	9.89338547	1.92661553	5.38962593	9.91319739	-2.16204176	0.72632146	8.64417888	3.26755945	-0.11954585	8.84987938	-4.62615253	4.05956896	11.13922043	-1.44756326	-0.76349683	10.17712214	-0.02790682	-2.26628550	11.53163670	-0.59450217	-1.16749215	6.73762761	1.30916338	9.94946475
